<svg width="50" height="50" viewBox="0 0 50 50" fill="none" xmlns="http://www.w3.org/2000/svg">
<path d="M25 4.16666V8.33332" stroke="#FFD601" stroke-width="4" stroke-linecap="round" stroke-linejoin="round"/>
<path d="M10.2708 10.2708L13.2083 13.2083" stroke="#FFD601" stroke-width="4" stroke-linecap="round" stroke-linejoin="round"/>
<path d="M41.6667 25H45.8334" stroke="#FFD601" stroke-width="4" stroke-linecap="round" stroke-linejoin="round"/>
<path d="M39.7292 10.2708L36.7917 13.2083" stroke="#FFD601" stroke-width="4" stroke-linecap="round" stroke-linejoin="round"/>
<path d="M33.2229 26.3542C33.4793 24.801 33.2906 23.2071 32.6785 21.7568C32.0665 20.3065 31.0562 19.0592 29.7646 18.1593C28.473 17.2595 26.953 16.7438 25.3804 16.6721C23.8079 16.6004 22.2473 16.9756 20.8792 17.7542" stroke="#FFD601" stroke-width="4" stroke-linecap="round" stroke-linejoin="round"/>
<path d="M27.0832 45.8333H14.5832C12.6124 45.8329 10.682 45.2734 9.01642 44.2197C7.35083 43.166 6.01834 41.6615 5.17372 39.8807C4.3291 38.1 4.00699 36.1162 4.24483 34.1597C4.48266 32.2032 5.27067 30.3543 6.51733 28.8278C7.76399 27.3012 9.41814 26.1597 11.2877 25.5358C13.1572 24.9118 15.1654 24.8311 17.079 25.3029C18.9926 25.7747 20.733 26.7797 22.0983 28.2012C23.4635 29.6226 24.3974 31.4023 24.7916 33.3333H27.0832C28.7409 33.3333 30.3306 33.9918 31.5027 35.1639C32.6748 36.336 33.3333 37.9257 33.3333 39.5833C33.3333 41.2409 32.6748 42.8307 31.5027 44.0028C30.3306 45.1749 28.7409 45.8333 27.0832 45.8333Z" stroke="#51A1FF" stroke-width="4" stroke-linecap="round" stroke-linejoin="round"/>
</svg>
