<svg width="50" height="50" viewBox="0 0 50 50" fill="none" xmlns="http://www.w3.org/2000/svg">
<path d="M36.4583 43.75H18.75C16.0456 43.7493 13.3946 42.9966 11.0933 41.576C8.79201 40.1554 6.93109 38.1228 5.71849 35.7054C4.50589 33.2881 3.98937 30.5811 4.22666 27.8871C4.46395 25.1931 5.44569 22.6181 7.06219 20.45C8.67868 18.2818 10.8662 16.6058 13.3804 15.6093C15.8946 14.6129 18.6363 14.3352 21.2993 14.8072C23.9622 15.2793 26.4414 16.4825 28.4599 18.2825C30.4783 20.0825 31.9565 22.4083 32.7292 25H36.4583C37.6895 25 38.9086 25.2425 40.046 25.7136C41.1834 26.1848 42.2169 26.8753 43.0875 27.7459C43.958 28.6164 44.6486 29.6499 45.1197 30.7873C45.5908 31.9248 45.8333 33.1439 45.8333 34.375C45.8333 35.6061 45.5908 36.8252 45.1197 37.9627C44.6486 39.1001 43.958 40.1336 43.0875 41.0041C42.2169 41.8747 41.1834 42.5652 40.046 43.0364C38.9086 43.5075 37.6895 43.75 36.4583 43.75Z" stroke="#5A5959" stroke-width="4" stroke-linecap="round" stroke-linejoin="round"/>
<path d="M45.8334 20.8333C45.8334 19.1757 45.175 17.586 44.0029 16.4139C42.8308 15.2418 41.2411 14.5833 39.5834 14.5833H34.9855C34.2788 12.0965 32.7521 9.92165 30.6534 8.41193C28.5547 6.90221 26.0072 6.1463 23.4247 6.26695C20.8422 6.38761 18.3764 7.37774 16.4276 9.07656C14.4788 10.7754 13.1615 13.0831 12.6897 15.625" stroke="#5A5959" stroke-width="4" stroke-linecap="round" stroke-linejoin="round"/>
</svg>
