<svg width="50" height="50" viewBox="0 0 50 50" fill="none" xmlns="http://www.w3.org/2000/svg">
<path d="M12.5001 34.0125C10.3047 32.97 8.40468 31.3955 6.97267 29.4319C5.54067 27.4683 4.62209 25.178 4.30042 22.7691C3.97876 20.3602 4.26421 17.9091 5.13084 15.6386C5.99746 13.3681 7.41777 11.3501 9.26268 9.76818C11.1076 8.18623 13.3186 7.09043 15.6948 6.58037C18.0709 6.07031 20.5369 6.16217 22.8685 6.8476C25.2001 7.53303 27.3235 8.79029 29.0456 10.5051C30.7677 12.2199 32.0339 14.338 32.7292 16.6667H36.4584C38.8573 16.6625 41.1666 17.5781 42.9109 19.225C44.6552 20.8719 45.7018 23.1248 45.8352 25.5201C45.9687 27.9153 45.1789 30.2705 43.6284 32.101C42.0778 33.9316 39.8846 35.098 37.5001 35.3604" stroke="#5A5959" stroke-width="4" stroke-linecap="round" stroke-linejoin="round"/>
<path d="M27.0833 25L20.8333 35.4167H29.1666L22.9166 45.8333" stroke="#FFD601" stroke-width="4" stroke-linecap="round" stroke-linejoin="round"/>
</svg>
