<svg width="24" height="24" viewBox="0 0 24 24" fill="none" xmlns="http://www.w3.org/2000/svg">
<path d="M17.7 7.7C17.9927 7.41816 18.3497 7.21191 18.7401 7.09912C19.1304 6.98632 19.5424 6.97038 19.9403 7.05268C20.3383 7.13497 20.7101 7.31301 21.0237 7.57139C21.3373 7.82977 21.5832 8.1607 21.7401 8.53552C21.897 8.91035 21.9602 9.31777 21.9242 9.7225C21.8882 10.1272 21.754 10.5171 21.5334 10.8583C21.3128 11.1995 21.0123 11.4818 20.658 11.6808C20.3037 11.8797 19.9062 11.9893 19.5 12H2" stroke="#737373" stroke-opacity="0.8" stroke-width="2" stroke-linecap="round" stroke-linejoin="round"/>
<path d="M9.6 4.6C9.83168 4.36371 10.1184 4.18859 10.4344 4.09035C10.7504 3.99212 11.0858 3.97383 11.4106 4.03713C11.7355 4.10043 12.0395 4.24333 12.2955 4.45304C12.5515 4.66275 12.7514 4.9327 12.8774 5.2387C13.0034 5.5447 13.0515 5.87718 13.0174 6.20634C12.9833 6.5355 12.8681 6.85106 12.682 7.12472C12.4959 7.39838 12.2449 7.6216 11.9513 7.77436C11.6578 7.92712 11.3309 8.00465 11 8H2" stroke="#737373" stroke-opacity="0.8" stroke-width="2" stroke-linecap="round" stroke-linejoin="round"/>
<path d="M12.6 19.4C12.8317 19.6363 13.1184 19.8114 13.4344 19.9096C13.7504 20.0079 14.0858 20.0262 14.4106 19.9629C14.7355 19.8996 15.0395 19.7567 15.2955 19.547C15.5515 19.3373 15.7514 19.0673 15.8774 18.7613C16.0034 18.4553 16.0515 18.1228 16.0174 17.7937C15.9833 17.4645 15.8681 17.1489 15.682 16.8753C15.4959 16.6016 15.2449 16.3784 14.9513 16.2256C14.6578 16.0729 14.3309 15.9954 14 16H2" stroke="#737373" stroke-opacity="0.8" stroke-width="2" stroke-linecap="round" stroke-linejoin="round"/>
</svg>
